<svg width="86" height="192" viewBox="0 0 86 192" fill="none" xmlns="http://www.w3.org/2000/svg">
<path fill-rule="evenodd" clip-rule="evenodd" d="M82.9879 89.5114C81.6456 89.5114 80.5574 88.4283 80.5574 87.0922C80.5574 85.7561 81.6456 84.673 82.9879 84.673C84.3303 84.673 85.4186 85.7561 85.4186 87.0922C85.4186 88.4283 84.3303 89.5114 82.9879 89.5114ZM82.9879 72.5768C81.6456 72.5768 80.5574 71.4937 80.5574 70.1576C80.5574 68.8215 81.6456 67.7384 82.9879 67.7384C84.3303 67.7384 85.4186 68.8215 85.4186 70.1576C85.4186 71.4937 84.3303 72.5768 82.9879 72.5768ZM82.9879 55.6422C81.6456 55.6422 80.5574 54.5591 80.5574 53.223C80.5574 51.8869 81.6456 50.8038 82.9879 50.8038C84.3303 50.8038 85.4186 51.8869 85.4186 53.223C85.4186 54.5591 84.3303 55.6422 82.9879 55.6422ZM82.9879 38.7076C81.6456 38.7076 80.5574 37.6245 80.5574 36.2884C80.5574 34.9523 81.6456 33.8692 82.9879 33.8692C84.3303 33.8692 85.4186 34.9523 85.4186 36.2884C85.4186 37.6245 84.3303 38.7076 82.9879 38.7076ZM82.9879 21.7731C81.6456 21.7731 80.5574 20.6899 80.5574 19.3538C80.5574 18.0177 81.6456 16.9346 82.9879 16.9346C84.3303 16.9346 85.4186 18.0177 85.4186 19.3538C85.4186 20.6899 84.3303 21.7731 82.9879 21.7731ZM82.9879 4.83845C81.6456 4.83845 80.5574 3.75533 80.5574 2.41923C80.5574 1.08312 81.6456 0 82.9879 0C84.3303 0 85.4186 1.08312 85.4186 2.41923C85.4186 3.75533 84.3303 4.83845 82.9879 4.83845ZM67.0154 89.5114C65.673 89.5114 64.5848 88.4283 64.5848 87.0922C64.5848 85.7561 65.673 84.673 67.0154 84.673C68.3578 84.673 69.446 85.7561 69.446 87.0922C69.446 88.4283 68.3578 89.5114 67.0154 89.5114ZM67.0154 72.5768C65.673 72.5768 64.5848 71.4937 64.5848 70.1576C64.5848 68.8215 65.673 67.7384 67.0154 67.7384C68.3578 67.7384 69.446 68.8215 69.446 70.1576C69.446 71.4937 68.3578 72.5768 67.0154 72.5768ZM67.0154 55.6422C65.673 55.6422 64.5848 54.5591 64.5848 53.223C64.5848 51.8869 65.673 50.8038 67.0154 50.8038C68.3578 50.8038 69.446 51.8869 69.446 53.223C69.446 54.5591 68.3578 55.6422 67.0154 55.6422ZM67.0154 38.7076C65.673 38.7076 64.5848 37.6245 64.5848 36.2884C64.5848 34.9523 65.673 33.8692 67.0154 33.8692C68.3578 33.8692 69.446 34.9523 69.446 36.2884C69.446 37.6245 68.3578 38.7076 67.0154 38.7076ZM67.0154 21.7731C65.673 21.7731 64.5848 20.6899 64.5848 19.3538C64.5848 18.0177 65.673 16.9346 67.0154 16.9346C68.3578 16.9346 69.446 18.0177 69.446 19.3538C69.446 20.6899 68.3578 21.7731 67.0154 21.7731ZM67.0154 4.83845C65.673 4.83845 64.5848 3.75533 64.5848 2.41923C64.5848 1.08312 65.673 0 67.0154 0C68.3578 0 69.446 1.08312 69.446 2.41923C69.446 3.75533 68.3578 4.83845 67.0154 4.83845ZM51.0428 89.5114C49.7004 89.5114 48.6122 88.4283 48.6122 87.0922C48.6122 85.7561 49.7004 84.673 51.0428 84.673C52.3852 84.673 53.4734 85.7561 53.4734 87.0922C53.4734 88.4283 52.3852 89.5114 51.0428 89.5114ZM51.0428 72.5768C49.7004 72.5768 48.6122 71.4937 48.6122 70.1576C48.6122 68.8215 49.7004 67.7384 51.0428 67.7384C52.3852 67.7384 53.4734 68.8215 53.4734 70.1576C53.4734 71.4937 52.3852 72.5768 51.0428 72.5768ZM51.0428 55.6422C49.7004 55.6422 48.6122 54.5591 48.6122 53.223C48.6122 51.8869 49.7004 50.8038 51.0428 50.8038C52.3852 50.8038 53.4734 51.8869 53.4734 53.223C53.4734 54.5591 52.3852 55.6422 51.0428 55.6422ZM51.0428 38.7076C49.7004 38.7076 48.6122 37.6245 48.6122 36.2884C48.6122 34.9523 49.7004 33.8692 51.0428 33.8692C52.3852 33.8692 53.4734 34.9523 53.4734 36.2884C53.4734 37.6245 52.3852 38.7076 51.0428 38.7076ZM51.0428 21.7731C49.7004 21.7731 48.6122 20.6899 48.6122 19.3538C48.6122 18.0177 49.7004 16.9346 51.0428 16.9346C52.3852 16.9346 53.4734 18.0177 53.4734 19.3538C53.4734 20.6899 52.3852 21.7731 51.0428 21.7731ZM51.0428 4.83845C49.7004 4.83845 48.6122 3.75533 48.6122 2.41923C48.6122 1.08312 49.7004 0 51.0428 0C52.3852 0 53.4734 1.08312 53.4734 2.41923C53.4734 3.75533 52.3852 4.83845 51.0428 4.83845ZM34.3757 89.5114C33.0334 89.5114 31.9452 88.4283 31.9452 87.0922C31.9452 85.7561 33.0334 84.673 34.3757 84.673C35.7181 84.673 36.8064 85.7561 36.8064 87.0922C36.8064 88.4283 35.7181 89.5114 34.3757 89.5114ZM34.3757 72.5768C33.0334 72.5768 31.9452 71.4937 31.9452 70.1576C31.9452 68.8215 33.0334 67.7384 34.3757 67.7384C35.7181 67.7384 36.8064 68.8215 36.8064 70.1576C36.8064 71.4937 35.7181 72.5768 34.3757 72.5768ZM34.3757 55.6422C33.0334 55.6422 31.9452 54.5591 31.9452 53.223C31.9452 51.8869 33.0334 50.8038 34.3757 50.8038C35.7181 50.8038 36.8064 51.8869 36.8064 53.223C36.8064 54.5591 35.7181 55.6422 34.3757 55.6422ZM34.3757 38.7076C33.0334 38.7076 31.9452 37.6245 31.9452 36.2884C31.9452 34.9523 33.0334 33.8692 34.3757 33.8692C35.7181 33.8692 36.8064 34.9523 36.8064 36.2884C36.8064 37.6245 35.7181 38.7076 34.3757 38.7076ZM34.3757 21.7731C33.0334 21.7731 31.9452 20.6899 31.9452 19.3538C31.9452 18.0177 33.0334 16.9346 34.3757 16.9346C35.7181 16.9346 36.8064 18.0177 36.8064 19.3538C36.8064 20.6899 35.7181 21.7731 34.3757 21.7731ZM34.3757 4.83845C33.0334 4.83845 31.9452 3.75533 31.9452 2.41923C31.9452 1.08312 33.0334 0 34.3757 0C35.7181 0 36.8064 1.08312 36.8064 2.41923C36.8064 3.75533 35.7181 4.83845 34.3757 4.83845ZM18.4032 89.5114C17.0608 89.5114 15.9726 88.4283 15.9726 87.0922C15.9726 85.7561 17.0608 84.673 18.4032 84.673C19.7456 84.673 20.8338 85.7561 20.8338 87.0922C20.8338 88.4283 19.7456 89.5114 18.4032 89.5114ZM18.4032 72.5768C17.0608 72.5768 15.9726 71.4937 15.9726 70.1576C15.9726 68.8215 17.0608 67.7384 18.4032 67.7384C19.7456 67.7384 20.8338 68.8215 20.8338 70.1576C20.8338 71.4937 19.7456 72.5768 18.4032 72.5768ZM18.4032 55.6422C17.0608 55.6422 15.9726 54.5591 15.9726 53.223C15.9726 51.8869 17.0608 50.8038 18.4032 50.8038C19.7456 50.8038 20.8338 51.8869 20.8338 53.223C20.8338 54.5591 19.7456 55.6422 18.4032 55.6422ZM18.4032 38.7076C17.0608 38.7076 15.9726 37.6245 15.9726 36.2884C15.9726 34.9523 17.0608 33.8692 18.4032 33.8692C19.7456 33.8692 20.8338 34.9523 20.8338 36.2884C20.8338 37.6245 19.7456 38.7076 18.4032 38.7076ZM18.4032 21.7731C17.0608 21.7731 15.9726 20.6899 15.9726 19.3538C15.9726 18.0177 17.0608 16.9346 18.4032 16.9346C19.7456 16.9346 20.8338 18.0177 20.8338 19.3538C20.8338 20.6899 19.7456 21.7731 18.4032 21.7731ZM18.4032 4.83845C17.0608 4.83845 15.9726 3.75533 15.9726 2.41923C15.9726 1.08312 17.0608 0 18.4032 0C19.7456 0 20.8338 1.08312 20.8338 2.41923C20.8338 3.75533 19.7456 4.83845 18.4032 4.83845ZM2.43063 89.5114C1.08824 89.5114 0 88.4283 0 87.0922C0 85.7561 1.08824 84.673 2.43063 84.673C3.77302 84.673 4.86119 85.7561 4.86119 87.0922C4.86119 88.4283 3.77302 89.5114 2.43063 89.5114ZM2.43063 72.5768C1.08824 72.5768 0 71.4937 0 70.1576C0 68.8215 1.08824 67.7384 2.43063 67.7384C3.77302 67.7384 4.86119 68.8215 4.86119 70.1576C4.86119 71.4937 3.77302 72.5768 2.43063 72.5768ZM2.43063 55.6422C1.08824 55.6422 0 54.5591 0 53.223C0 51.8869 1.08824 50.8038 2.43063 50.8038C3.77302 50.8038 4.86119 51.8869 4.86119 53.223C4.86119 54.5591 3.77302 55.6422 2.43063 55.6422ZM2.43063 38.7076C1.08824 38.7076 0 37.6245 0 36.2884C0 34.9523 1.08824 33.8692 2.43063 33.8692C3.77302 33.8692 4.86119 34.9523 4.86119 36.2884C4.86119 37.6245 3.77302 38.7076 2.43063 38.7076ZM2.43063 21.7731C1.08824 21.7731 0 20.6899 0 19.3538C0 18.0177 1.08824 16.9346 2.43063 16.9346C3.77302 16.9346 4.86119 18.0177 4.86119 19.3538C4.86119 20.6899 3.77302 21.7731 2.43063 21.7731ZM2.43063 4.83845C1.08824 4.83845 0 3.75533 0 2.41923C0 1.08312 1.08824 0 2.43063 0C3.77302 0 4.86119 1.08312 4.86119 2.41923C4.86119 3.75533 3.77302 4.83845 2.43063 4.83845ZM82.9879 191.455C81.6456 191.455 80.5574 190.372 80.5574 189.036C80.5574 187.7 81.6456 186.617 82.9879 186.617C84.3303 186.617 85.4186 187.7 85.4186 189.036C85.4186 190.372 84.3303 191.455 82.9879 191.455ZM82.9879 174.52C81.6456 174.52 80.5574 173.437 80.5574 172.101C80.5574 170.765 81.6456 169.682 82.9879 169.682C84.3303 169.682 85.4186 170.765 85.4186 172.101C85.4186 173.437 84.3303 174.52 82.9879 174.52ZM82.9879 157.586C81.6456 157.586 80.5574 156.503 80.5574 155.167C80.5574 153.83 81.6456 152.747 82.9879 152.747C84.3303 152.747 85.4186 153.83 85.4186 155.167C85.4186 156.503 84.3303 157.586 82.9879 157.586ZM82.9879 140.651C81.6456 140.651 80.5574 139.568 80.5574 138.232C80.5574 136.896 81.6456 135.813 82.9879 135.813C84.3303 135.813 85.4186 136.896 85.4186 138.232C85.4186 139.568 84.3303 140.651 82.9879 140.651ZM82.9879 123.717C81.6456 123.717 80.5574 122.633 80.5574 121.297C80.5574 119.961 81.6456 118.878 82.9879 118.878C84.3303 118.878 85.4186 119.961 85.4186 121.297C85.4186 122.633 84.3303 123.717 82.9879 123.717ZM82.9879 106.782C81.6456 106.782 80.5574 105.699 80.5574 104.363C80.5574 103.027 81.6456 101.944 82.9879 101.944C84.3303 101.944 85.4186 103.027 85.4186 104.363C85.4186 105.699 84.3303 106.782 82.9879 106.782ZM67.0154 191.455C65.673 191.455 64.5848 190.372 64.5848 189.036C64.5848 187.7 65.673 186.617 67.0154 186.617C68.3578 186.617 69.446 187.7 69.446 189.036C69.446 190.372 68.3578 191.455 67.0154 191.455ZM67.0154 174.52C65.673 174.52 64.5848 173.437 64.5848 172.101C64.5848 170.765 65.673 169.682 67.0154 169.682C68.3578 169.682 69.446 170.765 69.446 172.101C69.446 173.437 68.3578 174.52 67.0154 174.52ZM67.0154 157.586C65.673 157.586 64.5848 156.503 64.5848 155.167C64.5848 153.83 65.673 152.747 67.0154 152.747C68.3578 152.747 69.446 153.83 69.446 155.167C69.446 156.503 68.3578 157.586 67.0154 157.586ZM67.0154 140.651C65.673 140.651 64.5848 139.568 64.5848 138.232C64.5848 136.896 65.673 135.813 67.0154 135.813C68.3578 135.813 69.446 136.896 69.446 138.232C69.446 139.568 68.3578 140.651 67.0154 140.651ZM67.0154 123.717C65.673 123.717 64.5848 122.633 64.5848 121.297C64.5848 119.961 65.673 118.878 67.0154 118.878C68.3578 118.878 69.446 119.961 69.446 121.297C69.446 122.633 68.3578 123.717 67.0154 123.717ZM67.0154 106.782C65.673 106.782 64.5848 105.699 64.5848 104.363C64.5848 103.027 65.673 101.944 67.0154 101.944C68.3578 101.944 69.446 103.027 69.446 104.363C69.446 105.699 68.3578 106.782 67.0154 106.782ZM51.0428 191.455C49.7004 191.455 48.6122 190.372 48.6122 189.036C48.6122 187.7 49.7004 186.617 51.0428 186.617C52.3852 186.617 53.4734 187.7 53.4734 189.036C53.4734 190.372 52.3852 191.455 51.0428 191.455ZM51.0428 174.52C49.7004 174.52 48.6122 173.437 48.6122 172.101C48.6122 170.765 49.7004 169.682 51.0428 169.682C52.3852 169.682 53.4734 170.765 53.4734 172.101C53.4734 173.437 52.3852 174.52 51.0428 174.52ZM51.0428 157.586C49.7004 157.586 48.6122 156.503 48.6122 155.167C48.6122 153.83 49.7004 152.747 51.0428 152.747C52.3852 152.747 53.4734 153.83 53.4734 155.167C53.4734 156.503 52.3852 157.586 51.0428 157.586ZM51.0428 140.651C49.7004 140.651 48.6122 139.568 48.6122 138.232C48.6122 136.896 49.7004 135.813 51.0428 135.813C52.3852 135.813 53.4734 136.896 53.4734 138.232C53.4734 139.568 52.3852 140.651 51.0428 140.651ZM51.0428 123.717C49.7004 123.717 48.6122 122.633 48.6122 121.297C48.6122 119.961 49.7004 118.878 51.0428 118.878C52.3852 118.878 53.4734 119.961 53.4734 121.297C53.4734 122.633 52.3852 123.717 51.0428 123.717ZM51.0428 106.782C49.7004 106.782 48.6122 105.699 48.6122 104.363C48.6122 103.027 49.7004 101.944 51.0428 101.944C52.3852 101.944 53.4734 103.027 53.4734 104.363C53.4734 105.699 52.3852 106.782 51.0428 106.782ZM34.3757 191.455C33.0334 191.455 31.9452 190.372 31.9452 189.036C31.9452 187.7 33.0334 186.617 34.3757 186.617C35.7181 186.617 36.8064 187.7 36.8064 189.036C36.8064 190.372 35.7181 191.455 34.3757 191.455ZM34.3757 174.52C33.0334 174.52 31.9452 173.437 31.9452 172.101C31.9452 170.765 33.0334 169.682 34.3757 169.682C35.7181 169.682 36.8064 170.765 36.8064 172.101C36.8064 173.437 35.7181 174.52 34.3757 174.52ZM34.3757 157.586C33.0334 157.586 31.9452 156.503 31.9452 155.167C31.9452 153.83 33.0334 152.747 34.3757 152.747C35.7181 152.747 36.8064 153.83 36.8064 155.167C36.8064 156.503 35.7181 157.586 34.3757 157.586ZM34.3757 140.651C33.0334 140.651 31.9452 139.568 31.9452 138.232C31.9452 136.896 33.0334 135.813 34.3757 135.813C35.7181 135.813 36.8064 136.896 36.8064 138.232C36.8064 139.568 35.7181 140.651 34.3757 140.651ZM34.3757 123.717C33.0334 123.717 31.9452 122.633 31.9452 121.297C31.9452 119.961 33.0334 118.878 34.3757 118.878C35.7181 118.878 36.8064 119.961 36.8064 121.297C36.8064 122.633 35.7181 123.717 34.3757 123.717ZM34.3757 106.782C33.0334 106.782 31.9452 105.699 31.9452 104.363C31.9452 103.027 33.0334 101.944 34.3757 101.944C35.7181 101.944 36.8064 103.027 36.8064 104.363C36.8064 105.699 35.7181 106.782 34.3757 106.782ZM18.4032 191.455C17.0608 191.455 15.9726 190.372 15.9726 189.036C15.9726 187.7 17.0608 186.617 18.4032 186.617C19.7456 186.617 20.8338 187.7 20.8338 189.036C20.8338 190.372 19.7456 191.455 18.4032 191.455ZM18.4032 174.52C17.0608 174.52 15.9726 173.437 15.9726 172.101C15.9726 170.765 17.0608 169.682 18.4032 169.682C19.7456 169.682 20.8338 170.765 20.8338 172.101C20.8338 173.437 19.7456 174.52 18.4032 174.52ZM18.4032 157.586C17.0608 157.586 15.9726 156.503 15.9726 155.167C15.9726 153.83 17.0608 152.747 18.4032 152.747C19.7456 152.747 20.8338 153.83 20.8338 155.167C20.8338 156.503 19.7456 157.586 18.4032 157.586ZM18.4032 140.651C17.0608 140.651 15.9726 139.568 15.9726 138.232C15.9726 136.896 17.0608 135.813 18.4032 135.813C19.7456 135.813 20.8338 136.896 20.8338 138.232C20.8338 139.568 19.7456 140.651 18.4032 140.651ZM18.4032 123.717C17.0608 123.717 15.9726 122.633 15.9726 121.297C15.9726 119.961 17.0608 118.878 18.4032 118.878C19.7456 118.878 20.8338 119.961 20.8338 121.297C20.8338 122.633 19.7456 123.717 18.4032 123.717ZM18.4032 106.782C17.0608 106.782 15.9726 105.699 15.9726 104.363C15.9726 103.027 17.0608 101.944 18.4032 101.944C19.7456 101.944 20.8338 103.027 20.8338 104.363C20.8338 105.699 19.7456 106.782 18.4032 106.782ZM2.43063 191.455C1.08824 191.455 0 190.372 0 189.036C0 187.7 1.08824 186.617 2.43063 186.617C3.77302 186.617 4.86119 187.7 4.86119 189.036C4.86119 190.372 3.77302 191.455 2.43063 191.455ZM2.43063 174.52C1.08824 174.52 0 173.437 0 172.101C0 170.765 1.08824 169.682 2.43063 169.682C3.77302 169.682 4.86119 170.765 4.86119 172.101C4.86119 173.437 3.77302 174.52 2.43063 174.52ZM2.43063 157.586C1.08824 157.586 0 156.503 0 155.167C0 153.83 1.08824 152.747 2.43063 152.747C3.77302 152.747 4.86119 153.83 4.86119 155.167C4.86119 156.503 3.77302 157.586 2.43063 157.586ZM2.43063 140.651C1.08824 140.651 0 139.568 0 138.232C0 136.896 1.08824 135.813 2.43063 135.813C3.77302 135.813 4.86119 136.896 4.86119 138.232C4.86119 139.568 3.77302 140.651 2.43063 140.651ZM2.43063 123.717C1.08824 123.717 0 122.633 0 121.297C0 119.961 1.08824 118.878 2.43063 118.878C3.77302 118.878 4.86119 119.961 4.86119 121.297C4.86119 122.633 3.77302 123.717 2.43063 123.717ZM2.43063 106.782C1.08824 106.782 0 105.699 0 104.363C0 103.027 1.08824 101.944 2.43063 101.944C3.77302 101.944 4.86119 103.027 4.86119 104.363C4.86119 105.699 3.77302 106.782 2.43063 106.782Z" fill="#DC2249"/>
</svg>
