<svg width="34" height="39" viewBox="0 0 34 39" fill="none" xmlns="http://www.w3.org/2000/svg">
<circle cx="4" cy="5" r="1" fill="#E11C23"/>
<circle cx="9" cy="5" r="1" fill="#E11C23"/>
<circle cx="14" cy="5" r="1" fill="#E11C23"/>
<circle cx="19" cy="5" r="1" fill="#E11C23"/>
<circle cx="24" cy="5" r="1" fill="#E11C23"/>
<circle cx="29" cy="5" r="1" fill="#E11C23"/>
<circle cx="6" cy="9" r="1" fill="#E11C23"/>
<circle cx="11" cy="9" r="1" fill="#E11C23"/>
<circle cx="16" cy="9" r="1" fill="#E11C23"/>
<circle cx="21" cy="9" r="1" fill="#E11C23"/>
<circle cx="26" cy="9" r="1" fill="#E11C23"/>
<circle cx="9" cy="13" r="1" fill="#E11C23"/>
<circle cx="14" cy="13" r="1" fill="#E11C23"/>
<circle cx="19" cy="13" r="1" fill="#E11C23"/>
<circle cx="24" cy="13" r="1" fill="#E11C23"/>
<circle cx="11" cy="17" r="1" fill="#E11C23"/>
<circle cx="16" cy="17" r="1" fill="#E11C23"/>
<circle cx="21" cy="17" r="1" fill="#E11C23"/>
<circle cx="14" cy="21" r="1" fill="#E11C23"/>
<circle cx="19" cy="21" r="1" fill="#E11C23"/>
<circle cx="16" cy="25" r="1" fill="#E11C23"/>
<circle cx="1" cy="1" r="1" fill="#E11C23"/>
<circle cx="6" cy="1" r="1" fill="#E11C23"/>
<circle cx="11" cy="1" r="1" fill="#E11C23"/>
<circle cx="16" cy="1" r="1" fill="#E11C23"/>
<circle cx="21" cy="1" r="1" fill="#E11C23"/>
<circle cx="26" cy="1" r="1" fill="#E11C23"/>
<circle cx="31" cy="1" r="1" fill="#E11C23"/>
<circle r="0.588235" transform="matrix(1 0 0 -1 16.1568 35.3137)" fill="#E11C23"/>
<circle r="0.588235" transform="matrix(1 0 0 -1 19.294 35.3137)" fill="#E11C23"/>
<circle r="0.588235" transform="matrix(1 0 0 -1 22.4313 35.3137)" fill="#E11C23"/>
<circle r="0.588235" transform="matrix(1 0 0 -1 25.5685 35.3137)" fill="#E11C23"/>
<circle r="0.588235" transform="matrix(1 0 0 -1 28.7059 35.3137)" fill="#E11C23"/>
<circle r="0.588235" transform="matrix(1 0 0 -1 31.8431 35.3137)" fill="#E11C23"/>
<circle r="0.588235" transform="matrix(1 0 0 -1 17.7254 32.5687)" fill="#E11C23"/>
<circle r="0.588235" transform="matrix(1 0 0 -1 20.8629 32.5687)" fill="#E11C23"/>
<circle r="0.588235" transform="matrix(1 0 0 -1 24.0001 32.5687)" fill="#E11C23"/>
<circle r="0.588235" transform="matrix(1 0 0 -1 27.1373 32.5687)" fill="#E11C23"/>
<circle r="0.588235" transform="matrix(1 0 0 -1 30.2745 32.5687)" fill="#E11C23"/>
<circle r="0.588235" transform="matrix(1 0 0 -1 19.294 29.8235)" fill="#E11C23"/>
<circle r="0.588235" transform="matrix(1 0 0 -1 22.4313 29.8235)" fill="#E11C23"/>
<circle r="0.588235" transform="matrix(1 0 0 -1 25.5685 29.8235)" fill="#E11C23"/>
<circle r="0.588235" transform="matrix(1 0 0 -1 28.7059 29.8235)" fill="#E11C23"/>
<circle r="0.588235" transform="matrix(1 0 0 -1 20.8629 27.0784)" fill="#E11C23"/>
<circle r="0.588235" transform="matrix(1 0 0 -1 24.0001 27.0784)" fill="#E11C23"/>
<circle r="0.588235" transform="matrix(1 0 0 -1 27.1373 27.0784)" fill="#E11C23"/>
<circle r="0.588235" transform="matrix(1 0 0 -1 22.4313 24.3334)" fill="#E11C23"/>
<circle r="0.588235" transform="matrix(1 0 0 -1 25.5685 24.3334)" fill="#E11C23"/>
<circle r="0.588235" transform="matrix(1 0 0 -1 24.0001 21.5883)" fill="#E11C23"/>
<circle r="0.588235" transform="matrix(1 0 0 -1 14.5882 38.0589)" fill="#E11C23"/>
<circle r="0.588235" transform="matrix(1 0 0 -1 17.7254 38.0589)" fill="#E11C23"/>
<circle r="0.588235" transform="matrix(1 0 0 -1 20.8629 38.0589)" fill="#E11C23"/>
<circle r="0.588235" transform="matrix(1 0 0 -1 24.0001 38.0589)" fill="#E11C23"/>
<circle r="0.588235" transform="matrix(1 0 0 -1 27.1373 38.0589)" fill="#E11C23"/>
<circle r="0.588235" transform="matrix(1 0 0 -1 30.2745 38.0589)" fill="#E11C23"/>
<circle r="0.588235" transform="matrix(1 0 0 -1 33.412 38.0589)" fill="#E11C23"/>
</svg>
